Coordinates
version=1
nRows=19
nColumns=27
inDegrees=yes

Units are S.I. units (second, meters, Newtons, ...)
If the header above contains a line with 'inDegrees', this indicates whether rotational values are in degrees (yes) or radians (no).

endheader
time	pelvis_rotation	pelvis_tilt	pelvis_list	pelvis_tx	pelvis_ty	pelvis_tz	hip_flexion_r	hip_adduction_r	hip_rotation_r	knee_angle_r	knee_rotation_r	knee_adduction_r	knee_angle_r_beta	ankle_angle_r	subtalar_angle_r	mtp_angle_r	hip_flexion_l	hip_adduction_l	hip_rotation_l	knee_angle_l	knee_rotation_l	knee_adduction_l	knee_angle_l_beta	ankle_angle_l	subtalar_angle_l	mtp_angle_l
      4.26000000	     12.64488156	    -35.37285528	      7.05280210	     -0.07627360	      0.57923417	     -1.17840869	    114.82757971	    -44.41277708	     13.72769490	     91.12493033	      0.00000000	      9.42521962	      1.59043006	     11.63599334	      0.00000000	      0.00000000	    109.54262864	    -18.12538446	      9.84345874	     86.03281112	      0.00000000	     -9.83170689	      1.50155582	     10.69232508	      0.00000000	      0.00000000
      4.26500000	     11.88013885	    -35.46086438	      7.16383116	     -0.07720846	      0.58048633	     -1.17825850	    114.88189727	    -43.24920301	     14.07580510	     90.85885648	      0.00000000	      8.96401120	      1.58578620	     11.35690455	      0.00000000	      0.00000000	    109.22363617	    -18.89585372	      9.44789555	     85.78781365	      0.00000000	     -9.68799483	      1.49727981	     10.65184645	      0.00000000	      0.00000000
      4.27000000	     12.51424306	    -35.31687030	      7.12312764	     -0.07702343	      0.58174009	     -1.17886524	    114.44233471	    -44.25848955	     13.50647903	     90.65771614	      0.00000000	      9.40291483	      1.58227564	     11.42596011	      0.00000000	      0.00000000	    109.08032867	    -18.20248499	      9.53828514	     85.59596066	      0.00000000	     -9.82569248	      1.49393134	     10.59347318	      0.00000000	      0.00000000
      4.27500000	     11.77533638	    -35.47259839	      6.70416779	     -0.07783144	      0.58307963	     -1.17823376	    113.92507141	    -43.34634901	     13.03361415	     90.36829316	      0.00000000	      8.91988380	      1.57722426	     11.39786574	      0.00000000	      0.00000000	    109.08961795	    -18.78998438	      9.74627430	     85.36863089	      0.00000000	     -9.67967434	      1.48996369	     10.45930828	      0.00000000	      0.00000000
      4.28000000	     12.33818631	    -35.26121007	      7.09491416	     -0.07773438	      0.58420964	     -1.17919091	    113.95067591	    -44.08918904	     13.15870592	     90.19722506	      0.00000000	      9.37750560	      1.57423855	     11.28966295	      0.00000000	      0.00000000	    108.65616108	    -18.29515308	      9.33732311	     85.16874249	      0.00000000	     -9.81989972	      1.48647498	     10.49575952	      0.00000000	      0.00000000
      4.28500000	     12.20537433	    -35.26803387	      7.09449513	     -0.07818530	      0.58540428	     -1.17929797	    113.75252825	    -43.91531200	     13.03253544	     89.96425805	      0.00000000	      9.36076095	      1.57017251	     11.25768456	      0.00000000	      0.00000000	    108.47484709	    -18.41079886	      9.20120759	     84.94817768	      0.00000000	     -9.81821182	      1.48262539	     10.41176374	      0.00000000	      0.00000000
      4.29000000	     11.44545921	    -35.37264460	      7.16143671	     -0.07911399	      0.58655051	     -1.17906925	    113.80012454	    -42.76766839	     13.35692962	     89.70781386	      0.00000000	      8.85975367	      1.56569672	     10.98363462	      0.00000000	      0.00000000	    108.20102750	    -19.15041517	      8.86763905	     84.71874611	      0.00000000	     -9.66302121	      1.47862106	     10.37412290	      0.00000000	      0.00000000
      4.29500000	     12.01437512	    -35.22283804	      6.99941356	     -0.07889325	      0.58777149	     -1.17948204	    113.20657187	    -43.73080973	     12.60285853	     89.51446751	      0.00000000	      9.33141653	      1.56232219	     11.11829734	      0.00000000	      0.00000000	    108.09918519	    -18.50714935	      9.07833570	     84.53507718	      0.00000000	     -9.81280300	      1.47541543	     10.31679159	      0.00000000	      0.00000000
      4.30000000	     11.98060051	    -35.17528251	      7.07939690	     -0.07922671	      0.58888775	     -1.17970876	    113.06540666	    -43.66538308	     12.58313760	     89.30716092	      0.00000000	      9.32117435	      1.55870400	     11.00564953	      0.00000000	      0.00000000	    107.84774282	    -18.52509508	      8.89343244	     84.32905856	      0.00000000	     -9.80934509	      1.47181973	     10.27841550	      0.00000000	      0.00000000
      4.30500000	     11.90761215	    -35.14233845	      7.08803693	     -0.07957418	      0.59000081	     -1.17981067	    112.85392005	    -43.56926784	     12.46306803	     89.10129186	      0.00000000	      9.30864343	      1.55511091	     10.97109323	      0.00000000	      0.00000000	    107.63760897	    -18.57531523	      8.77415799	     84.12255295	      0.00000000	     -9.80670764	      1.46821552	     10.22522991	      0.00000000	      0.00000000
      4.31000000	     11.86508179	    -35.10640556	      7.08118042	     -0.07990012	      0.59110645	     -1.17990350	    112.61837813	    -43.51503738	     12.31259794	     88.89180169	      0.00000000	      9.29571436	      1.55145462	     10.91727122	      0.00000000	      0.00000000	    107.43750707	    -18.58364074	      8.68880189	     83.91601337	      0.00000000	     -9.80409221	      1.46461073	     10.17129588	      0.00000000	      0.00000000
      4.31500000	     11.08112471	    -35.20689188	      7.14200604	     -0.08082469	      0.59215342	     -1.17956834	    112.68344595	    -42.32801801	     12.69051825	     88.64677191	      0.00000000	      8.76319962	      1.54717804	     10.68560504	      0.00000000	      0.00000000	    107.16285697	    -19.35735095	      8.34176081	     83.68639412	      0.00000000	     -9.64144251	      1.46060312	     10.11488345	      0.00000000	      0.00000000
      4.32000000	     11.91346015	    -34.97175612	      7.08243264	     -0.08038829	      0.59325441	     -1.18017553	    112.10135788	    -43.59907082	     11.98239079	     88.48857899	      0.00000000	      9.27731865	      1.54441705	     10.78603050	      0.00000000	      0.00000000	    106.99829448	    -18.46831600	      8.53309831	     83.51219791	      0.00000000	     -9.79786590	      1.45756282	     10.09444575	      0.00000000	      0.00000000
      4.32500000	     11.00987791	    -35.08672227	      7.11514420	     -0.08133944	      0.59425282	     -1.17969064	    112.17624514	    -42.24954284	     12.40207528	     88.26898749	      0.00000000	      8.73155227	      1.54058446	     10.59299720	      0.00000000	      0.00000000	    106.73043084	    -19.37126389	      8.17225788	     83.28842597	      0.00000000	     -9.63306009	      1.45365726	     10.01644661	      0.00000000	      0.00000000
      4.33000000	     11.72668474	    -34.87934492	      7.11379759	     -0.08099934	      0.59528810	     -1.18022817	    111.70685110	    -43.34120266	     11.80832216	     88.11336767	      0.00000000	      9.24852523	      1.53786838	     10.69469693	      0.00000000	      0.00000000	    106.55111721	    -18.62767285	      8.27473241	     83.12068119	      0.00000000	     -9.79264483	      1.45072956	     10.01497835	      0.00000000	      0.00000000
      4.33500000	     10.92806987	    -35.02297001	      7.11407759	     -0.08195582	      0.59624174	     -1.17975557	    111.75773852	    -42.10402411	     12.17525421	     87.88229613	      0.00000000	      8.68946825	      1.53383542	     10.48067748	      0.00000000	      0.00000000	    106.36350977	    -19.39711075	      8.00522983	     82.90346985	      0.00000000	     -9.62478307	      1.44693851	      9.91125382	      0.00000000	      0.00000000
      4.34000000	     11.75839066	    -34.79317987	      7.06583259	     -0.08148078	      0.59727056	     -1.18031232	    111.18945829	    -43.36080690	     11.46975063	     87.73951852	      0.00000000	      9.22815205	      1.53134348	     10.60542503	      0.00000000	      0.00000000	    106.20720330	    -18.52055925	      8.20446554	     82.73510316	      0.00000000	     -9.78789798	      1.44399996	      9.87856863	      0.00000000	      0.00000000
      4.34500000	     10.82260067	    -34.90391053	      7.06582218	     -0.08236939	      0.59822056	     -1.17975195	    111.23536654	    -41.99073403	     11.87180790	     87.51642333	      0.00000000	      8.64408529	      1.52744974	     10.42106626	      0.00000000	      0.00000000	    105.94684402	    -19.45467956	      7.85706113	     82.52442598	      0.00000000	     -9.61667350	      1.44032295	      9.80567908	      0.00000000	      0.00000000
      4.35000000	     11.60969170	    -34.67724762	      7.08935831	     -0.08192172	      0.59915524	     -1.18033602	    110.77402182	    -43.14011551	     11.32053107	     87.39834808	      0.00000000	      9.19662547	      1.52538893	     10.51752833	      0.00000000	      0.00000000	    105.76456279	    -18.63926969	      7.97964896	     82.37363612	      0.00000000	     -9.78394516	      1.43769117	      9.80353186	      0.00000000	      0.00000000
